<?xml version="1.0" encoding="utf-8"?>
<!-- Generator: Adobe Illustrator 21.1.0, SVG Export Plug-In . SVG Version: 6.00 Build 0)  -->
<svg version="1.1" id="Layer_1" xmlns="http://www.w3.org/2000/svg" xmlns:xlink="http://www.w3.org/1999/xlink" x="0px" y="0px"
	 viewBox="0 0 300 300" style="enable-background:new 0 0 300 300;" xml:space="preserve">
<style type="text/css">
	.st0{fill:none;stroke:#4D799D;stroke-width:4;stroke-miterlimit:10;}
	.st1{fill:none;stroke:#4D799D;stroke-width:4;stroke-linecap:round;stroke-miterlimit:10;}
	.st2{fill:#4D799D;}
</style>
<rect x="173.5" y="166.5" class="st0" width="103.7" height="103.7"/>
<line class="st1" x1="107.6" y1="29.8" x2="154.7" y2="95.7"/>
<line class="st0" x1="154.7" y1="95.8" x2="286.7" y2="95.8"/>
<g>
	<polyline class="st0" points="286.7,147.6 286.7,62.8 131.1,62.8 107.6,29.8 13.3,29.8 13.3,62.8 13.3,270.2 135.9,270.2 	"/>
</g>
<path class="st2" d="M225.4,200.8c-9.7,0-17.6,7.9-17.6,17.6s7.9,17.6,17.6,17.6s17.6-7.9,17.6-17.6S235.1,200.8,225.4,200.8z
	 M225.4,230.6c-6.8,0-12.3-5.5-12.3-12.3c0-6.8,5.5-12.3,12.3-12.3c6.8,0,12.3,5.5,12.3,12.3C237.7,225.1,232.1,230.6,225.4,230.6z"
	/>
<path class="st2" d="M265.7,210.1l-9.2-1.2c-0.6-2.1-1.4-4.1-2.5-6l5.7-7.4c0.7-0.9,0.7-2.2,0-3.2c-2.4-3.2-5.2-6-8.4-8.4
	c-0.9-0.7-2.3-0.7-3.2,0l-7.3,5.6c-1.9-1-3.9-1.9-6-2.5l-1.2-9.2c-0.2-1.2-1.1-2.1-2.3-2.3c-4-0.6-7.9-0.6-11.9,0
	c-1.2,0.2-2.1,1.1-2.3,2.3l-1.2,9.2c-2.1,0.6-4.1,1.5-6,2.5l-7.4-5.7c-0.9-0.7-2.2-0.7-3.2,0c-1.4,1.1-2.8,2.3-4.2,3.6l-0.6,0.6
	c-1.3,1.3-2.5,2.7-3.6,4.1c-0.7,0.9-0.7,2.3,0,3.2l5.6,7.3c-1,1.9-1.9,3.9-2.5,6l-9.2,1.2c-1.2,0.2-2.1,1.1-2.3,2.3
	c-0.2,1.7-0.4,3.5-0.4,5.3v1.2c0,1.8,0.2,3.6,0.4,5.3c0.2,1.2,1.1,2.1,2.3,2.3l9.2,1.2c0.6,2.1,1.5,4.1,2.5,6l-5.6,7.3
	c-0.7,0.9-0.7,2.2,0,3.2c1.1,1.4,2.3,2.8,3.6,4.2l0.6,0.6c1.3,1.3,2.7,2.5,4.2,3.6c0.9,0.7,2.3,0.7,3.2,0l7.4-5.7
	c1.9,1,3.9,1.9,6,2.5l1.2,9.2c0.2,1.2,1.1,2.1,2.3,2.3c2,0.3,4,0.4,5.9,0.4c1.9,0,3.9-0.1,5.9-0.4c1.2-0.2,2.1-1.1,2.3-2.3l1.2-9.2
	c2.1-0.6,4.1-1.5,6-2.5l7.3,5.6c0.9,0.7,2.3,0.7,3.2,0c3.2-2.4,6-5.2,8.4-8.4c0.7-0.9,0.7-2.3,0-3.2l-5.7-7.4c1-1.9,1.8-3.9,2.5-6
	l9.2-1.2c1.2-0.2,2.1-1.1,2.3-2.3c0.3-2,0.4-4,0.4-5.9c0-1.9-0.1-3.9-0.4-5.9C267.8,211.2,266.8,210.3,265.7,210.1z M262.9,221.6
	l-8.9,1.2c-1.1,0.1-2,0.9-2.2,2c-0.7,2.8-1.7,5.4-3.2,7.8c-0.6,0.9-0.5,2.1,0.2,3l5.5,7.1c-1.4,1.6-2.9,3.2-4.6,4.6l-7.1-5.5
	c-0.9-0.7-2.1-0.7-3-0.2c-2.4,1.5-5,2.6-7.8,3.2c-1.1,0.3-1.9,1.1-2,2.2l-1.2,8.9c-2.2,0.2-4.3,0.2-6.5,0L221,247
	c-0.1-1.1-0.9-2-2-2.2c-2.8-0.7-5.4-1.8-7.8-3.2c-0.9-0.6-2.1-0.5-3,0.2l-7.1,5.5c-0.7-0.6-1.4-1.2-2.1-1.9l-0.6-0.6
	c-0.7-0.7-1.3-1.4-1.9-2.1l5.5-7.1c0.7-0.9,0.7-2.1,0.2-3c-1.5-2.4-2.6-5.1-3.2-7.8c-0.3-1.1-1.1-1.9-2.2-2l-8.9-1.2
	c-0.1-0.9-0.1-1.8-0.1-2.6v-1.1c0-0.9,0.1-1.8,0.1-2.7l8.9-1.2c1.1-0.1,2-0.9,2.2-2c0.7-2.8,1.8-5.4,3.2-7.8c0.6-0.9,0.5-2.1-0.2-3
	l-5.5-7.1c0.6-0.7,1.2-1.4,1.9-2.1l0.6-0.6c0.7-0.7,1.4-1.3,2.1-1.9l7.1,5.5c0.9,0.7,2,0.7,3,0.2c2.4-1.5,5.1-2.6,7.8-3.2
	c1.1-0.3,1.9-1.1,2-2.2l1.2-8.9c2.2-0.2,4.3-0.2,6.5,0l1.2,8.9c0.1,1.1,0.9,2,2,2.2c2.8,0.7,5.4,1.8,7.8,3.2c0.9,0.6,2.1,0.5,3-0.2
	l7.1-5.5c1.7,1.4,3.2,2.9,4.6,4.6l-5.5,7.1c-0.7,0.9-0.7,2-0.2,3c1.5,2.4,2.6,5,3.2,7.8c0.3,1.1,1.1,1.9,2.2,2l8.9,1.2
	c0.1,1.1,0.1,2.2,0.1,3.2C263.1,219.4,263,220.5,262.9,221.6z"/>
</svg>
